# xmcd CD Database Entry
#
# Track frame offsets:
# 150
# 21347
# 43126
# 60075
# 76508
# 94881
# 114490
# 134017
# 155297
# 177172
# 198457
# 216968
# 232958
# 249160
# 265368
# 280881
# 300014
# 316929
#
# Disc length: 4444 seconds
#
# Revision: 1
# Processed by: cddbd v1.4PL0 Copyright (c) Steve Scherf et al.
# Submitted via: tcd 2.0b
#
DISCID=e7115a12
DTITLE=Donna Summer - The Donna Summer Anthology CD2
DYEAR=1900
DGENRE=
TTITLE0=No More Tears (Enough Is Enough)
TTITLE1=On The Radio
TTITLE2=The Wanderer
TTITLE3=Cold Love
TTITLE4=I'm A Rainbow
TTITLE5=Don't Cry For Me Argentina
TTITLE6=Love Is In Control (Finger On The Trigger)
TTITLE7=State Of Independence
TTITLE8=She Works Hard For The Money
TTITLE9=Unconditional Love
TTITLE10=There Goes My Baby
TTITLE11=Supernatural Love
TTITLE12=All Systems Go
TTITLE13=This Time I Know It's For Real
TTITLE14=I Don't Wanna Get Hurt
TTITLE15=When Love Cries
TTITLE16=Friends Unknown
TTITLE17=Carry On
EXTD=
EXTT0=
EXTT1=
EXTT2=
EXTT3=
EXTT4=
EXTT5=
EXTT6=
EXTT7=
EXTT8=
EXTT9=
EXTT10=
EXTT11=
EXTT12=
EXTT13=
EXTT14=
EXTT15=
EXTT16=
EXTT17=
PLAYORDER=
